<mxfile host="app.diagrams.net" agent="Mozilla/5.0 (Windows NT 10.0; Win64; x64) AppleWebKit/537.36 (KHTML, like Gecko) Chrome/135.0.0.0 Safari/537.36 Edg/135.0.0.0" version="26.2.13">
  <diagram name="PÃ¡gina-1" id="O05kAlOxNASol1o8IO_n">
    <mxGraphModel dx="940" dy="572" grid="1" gridSize="10" guides="1" tooltips="1" connect="1" arrows="1" fold="1" page="1" pageScale="1" pageWidth="827" pageHeight="1169" math="0" shadow="0">
      <root>
        <mxCell id="0" />
        <mxCell id="1" parent="0" />
        <mxCell id="xB7U4dMdvarkbyEem29c-3" value="" style="edgeStyle=orthogonalEdgeStyle;rounded=0;orthogonalLoop=1;jettySize=auto;html=1;" edge="1" parent="1" source="xB7U4dMdvarkbyEem29c-1" target="xB7U4dMdvarkbyEem29c-2">
          <mxGeometry relative="1" as="geometry" />
        </mxCell>
        <mxCell id="xB7U4dMdvarkbyEem29c-1" value="Cliente" style="rounded=0;whiteSpace=wrap;html=1;" vertex="1" parent="1">
          <mxGeometry x="80" y="120" width="120" height="60" as="geometry" />
        </mxCell>
        <mxCell id="xB7U4dMdvarkbyEem29c-5" value="" style="edgeStyle=orthogonalEdgeStyle;rounded=0;orthogonalLoop=1;jettySize=auto;html=1;" edge="1" parent="1" source="xB7U4dMdvarkbyEem29c-2" target="xB7U4dMdvarkbyEem29c-4">
          <mxGeometry relative="1" as="geometry" />
        </mxCell>
        <mxCell id="xB7U4dMdvarkbyEem29c-2" value="Web/Navegador" style="rounded=0;whiteSpace=wrap;html=1;" vertex="1" parent="1">
          <mxGeometry x="240" y="120" width="120" height="60" as="geometry" />
        </mxCell>
        <mxCell id="xB7U4dMdvarkbyEem29c-7" value="" style="edgeStyle=orthogonalEdgeStyle;rounded=0;orthogonalLoop=1;jettySize=auto;html=1;" edge="1" parent="1" source="xB7U4dMdvarkbyEem29c-4" target="xB7U4dMdvarkbyEem29c-6">
          <mxGeometry relative="1" as="geometry" />
        </mxCell>
        <mxCell id="xB7U4dMdvarkbyEem29c-4" value="Angular19&lt;div&gt;Front&lt;/div&gt;" style="rounded=0;whiteSpace=wrap;html=1;" vertex="1" parent="1">
          <mxGeometry x="440" y="120" width="120" height="60" as="geometry" />
        </mxCell>
        <mxCell id="xB7U4dMdvarkbyEem29c-9" value="" style="edgeStyle=orthogonalEdgeStyle;rounded=0;orthogonalLoop=1;jettySize=auto;html=1;" edge="1" parent="1" source="xB7U4dMdvarkbyEem29c-6" target="xB7U4dMdvarkbyEem29c-8">
          <mxGeometry relative="1" as="geometry" />
        </mxCell>
        <mxCell id="xB7U4dMdvarkbyEem29c-6" value="Servidor backend" style="rounded=0;whiteSpace=wrap;html=1;" vertex="1" parent="1">
          <mxGeometry x="440" y="260" width="120" height="60" as="geometry" />
        </mxCell>
        <mxCell id="xB7U4dMdvarkbyEem29c-11" value="" style="edgeStyle=orthogonalEdgeStyle;rounded=0;orthogonalLoop=1;jettySize=auto;html=1;" edge="1" parent="1" source="xB7U4dMdvarkbyEem29c-8" target="xB7U4dMdvarkbyEem29c-10">
          <mxGeometry relative="1" as="geometry" />
        </mxCell>
        <mxCell id="xB7U4dMdvarkbyEem29c-8" value="Node.js" style="rounded=0;whiteSpace=wrap;html=1;" vertex="1" parent="1">
          <mxGeometry x="240" y="260" width="120" height="60" as="geometry" />
        </mxCell>
        <mxCell id="xB7U4dMdvarkbyEem29c-13" value="" style="edgeStyle=orthogonalEdgeStyle;rounded=0;orthogonalLoop=1;jettySize=auto;html=1;" edge="1" parent="1" source="xB7U4dMdvarkbyEem29c-10" target="xB7U4dMdvarkbyEem29c-12">
          <mxGeometry relative="1" as="geometry" />
        </mxCell>
        <mxCell id="xB7U4dMdvarkbyEem29c-10" value="Conexion con&lt;div&gt;BBDD&lt;/div&gt;" style="rounded=0;whiteSpace=wrap;html=1;" vertex="1" parent="1">
          <mxGeometry x="80" y="260" width="120" height="60" as="geometry" />
        </mxCell>
        <mxCell id="xB7U4dMdvarkbyEem29c-12" value="BBDD&amp;nbsp;&lt;div&gt;MySQL&lt;/div&gt;" style="rounded=0;whiteSpace=wrap;html=1;" vertex="1" parent="1">
          <mxGeometry x="80" y="400" width="120" height="60" as="geometry" />
        </mxCell>
        <mxCell id="xB7U4dMdvarkbyEem29c-15" value="Https&lt;div&gt;REST&lt;/div&gt;&lt;div&gt;&lt;br&gt;&lt;/div&gt;" style="edgeLabel;html=1;align=center;verticalAlign=middle;resizable=0;points=[];" vertex="1" connectable="0" parent="1">
          <mxGeometry x="530" y="230" as="geometry" />
        </mxCell>
      </root>
    </mxGraphModel>
  </diagram>
</mxfile>
